<?xml version="1.0" encoding="utf-8"?>
<!-- Generator: Adobe Illustrator 25.2.3, SVG Export Plug-In . SVG Version: 6.00 Build 0)  -->
<svg version="1.1" id="Layer_1" xmlns="http://www.w3.org/2000/svg" xmlns:xlink="http://www.w3.org/1999/xlink" x="0px" y="0px"
	 viewBox="0 0 90 20" style="enable-background:new 0 0 90 20;" xml:space="preserve">
<style type="text/css">
	.st0{font-family:'Mermaid-Bold';}
	.st1{font-size:12px;}
	.st2{fill:#FFFFFF;}
</style>
<text transform="matrix(1 0 0 1 25.0341 13.6791)" class="st0 st1">Harmonize</text>
<g id="TmsNTy.tif">
	<g>
		<path d="M14.3,2.3c1,0,2,0,3,0c2.3,0,4.2,1.6,4.7,3.8C22,6.4,22,6.7,22,7c0,2,0,3.9,0,5.9c0,2.4-1.7,4.3-4.1,4.7
			c-0.2,0-0.4,0.1-0.7,0.1c-2,0-4,0-6,0c-1.9,0-3.7-1.3-4.4-3c-0.2-0.6-0.3-1.1-0.3-1.7c0-2,0-3.9,0-5.9c0-2.3,1.6-4.3,3.9-4.7
			c0.3,0,0.5-0.1,0.8-0.1C12.3,2.3,13.3,2.3,14.3,2.3z M19.9,4.7C19.9,4.6,19.9,4.6,19.9,4.7C19.9,4.6,19.9,4.6,19.9,4.7
			c-0.8-0.8-1.6-1.2-2.6-1.2c-2,0-4,0-5.9,0c-0.6,0-1.2,0.1-1.7,0.4C8.5,4.5,7.9,5.5,7.8,6.8c0,0.1,0,0.3,0,0.4c0,1.9,0,3.8,0,5.7
			c0,0.7,0.5,1.2,1.2,1.2c0.4,0,0.7,0,1.1,0c0.2,0,0.4,0,0.6,0c1.4-0.2,2.4-1,2.9-2.3c0.2-0.4,0.2-0.8,0.2-1.2c0-0.5,0-1.1,0-1.6
			c0.2-2.3,2.1-4.1,4.4-4.2c0.5,0,1.1,0,1.6,0C19.8,4.7,19.9,4.7,19.9,4.7z M16.1,11.8c0,1,0.8,1.8,1.8,1.8c1,0,1.8-0.8,1.8-1.8
			c0-1-0.8-1.8-1.8-1.8C16.9,10,16.1,10.8,16.1,11.8z"/>
		<path class="st2" d="M19.9,4.7c0,0-0.1,0-0.1,0c-0.5,0-1.1,0-1.6,0c-2.3,0.1-4.2,2-4.4,4.2c0,0.5,0,1.1,0,1.6
			c0,0.4-0.1,0.8-0.2,1.2c-0.5,1.3-1.5,2.1-2.9,2.3c-0.2,0-0.4,0-0.6,0c-0.4,0-0.7,0-1.1,0c-0.7,0-1.2-0.5-1.2-1.2
			c0-1.9,0-3.8,0-5.7c0-0.1,0-0.3,0-0.4c0.1-1.3,0.8-2.3,1.9-2.9c0.5-0.3,1.1-0.4,1.7-0.4c2,0,4,0,5.9,0C18.3,3.5,19.1,3.9,19.9,4.7
			C19.9,4.6,19.9,4.6,19.9,4.7C19.9,4.6,19.9,4.6,19.9,4.7z M10.7,6.4c-1,0-1.8,0.8-1.8,1.8c0,1,0.8,1.8,1.8,1.8
			c1,0,1.8-0.8,1.8-1.8C12.5,7.2,11.7,6.4,10.7,6.4z"/>
		<path class="st2" d="M16.1,11.8c0-1,0.8-1.8,1.8-1.8c1,0,1.8,0.8,1.8,1.8c0,1-0.8,1.8-1.8,1.8C16.9,13.5,16.1,12.7,16.1,11.8z"/>
		<path d="M10.7,6.4c1,0,1.8,0.8,1.8,1.8c0,1-0.8,1.8-1.8,1.8c-1,0-1.8-0.8-1.8-1.8C8.9,7.2,9.8,6.4,10.7,6.4z"/>
	</g>
</g>
</svg>
